<svg width="32" height="32" viewBox="0 0 32 32" fill="none" xmlns="http://www.w3.org/2000/svg">
  <rect width="32" height="32" rx="4" fill="#0E0E0E" />
  <!-- Chip body -->
  <rect x="7" y="7" width="18" height="18" rx="3" stroke="white" stroke-width="1.2" />
  <!-- Signal weave -->
  <path d="M 10 10 C 13 13 12 16 16 16 C 20 16 19 19 22 22" stroke="white" stroke-width="1" stroke-linecap="round" />
  <path d="M 22 10 C 19 13 20 16 16 16 C 12 16 13 19 10 22" stroke="white" stroke-width="1" stroke-linecap="round" />
  <!-- Center hub -->
  <circle cx="16" cy="16" r="1.8" fill="white" />
  <!-- Pins -->
  <line x1="7" y1="16" x2="4.5" y2="16" stroke="white" stroke-width="1" stroke-linecap="round" />
  <line x1="25" y1="16" x2="27.5" y2="16" stroke="white" stroke-width="1" stroke-linecap="round" />
  <line x1="16" y1="7" x2="16" y2="4.5" stroke="white" stroke-width="1" stroke-linecap="round" />
  <line x1="16" y1="25" x2="16" y2="27.5" stroke="white" stroke-width="1" stroke-linecap="round" />
  <!-- Pin pads -->
  <circle cx="4.5" cy="16" r="1" fill="white" />
  <circle cx="27.5" cy="16" r="1" fill="white" />
  <circle cx="16" cy="4.5" r="1" fill="white" />
  <circle cx="16" cy="27.5" r="1" fill="white" />
</svg>
